<svg width="59" height="59" viewBox="0 0 59 59" fill="none" xmlns="http://www.w3.org/2000/svg">
<circle cx="29.5" cy="29.5" r="29.5" fill="#E8A635"/>
<path d="M42.0909 20.1572H16.9091C16.407 20.1572 16 20.6849 16 21.3357V37.6643C16 38.315 16.407 38.8427 16.9091 38.8427H42.0909C42.5929 38.8427 43 38.315 43 37.6643V21.3357C43 20.6848 42.5929 20.1572 42.0909 20.1572ZM29.5 28.1822L20.7585 22.5141H38.2415L29.5 28.1822ZM17.8182 23.2428L23.6925 27.0518L17.8182 34.6697V23.2428ZM25.4063 28.1632L29.0934 30.5539C29.2214 30.6368 29.3606 30.6784 29.5001 30.6784C29.6395 30.6784 29.7787 30.637 29.9068 30.5539L33.5938 28.1632L40.0117 36.4858H18.9884L25.4063 28.1632ZM35.3075 27.052L41.1818 23.2428V34.6699L35.3075 27.052Z" fill="white"/>
</svg>
