<svg width="67" height="67" viewBox="0 0 67 67" fill="none" xmlns="http://www.w3.org/2000/svg">
<g filter="url(#filter0_d_335_2)">
<circle cx="33.5" cy="29.5" r="29.5" fill="#83DB43"/>
</g>
<g filter="url(#filter1_d_335_2)">
<path d="M33.5 13C26.0396 13 19.9922 19.0474 19.9922 26.5078C19.9922 33.9682 33.5 46 33.5 46C33.5 46 47.0078 33.9682 47.0078 26.5078C47.0078 19.0474 40.9604 13 33.5 13ZM33.5 32.6233C29.9123 32.6233 27.0025 29.7137 27.0025 26.1258C27.0025 22.5378 29.9123 19.6282 33.5 19.6282C37.088 19.6282 39.9975 22.5378 39.9975 26.1258C39.9975 29.7137 37.088 32.6233 33.5 32.6233Z" fill="white"/>
</g>
<defs>
<filter id="filter0_d_335_2" x="0" y="0" width="67" height="67" filterUnits="userSpaceOnUse" color-interpolation-filters="sRGB">
<feFlood flood-opacity="0" result="BackgroundImageFix"/>
<feColorMatrix in="SourceAlpha" type="matrix" values="0 0 0 0 0 0 0 0 0 0 0 0 0 0 0 0 0 0 127 0" result="hardAlpha"/>
<feOffset dy="4"/>
<feGaussianBlur stdDeviation="2"/>
<feComposite in2="hardAlpha" operator="out"/>
<feColorMatrix type="matrix" values="0 0 0 0 0 0 0 0 0 0 0 0 0 0 0 0 0 0 0.25 0"/>
<feBlend mode="normal" in2="BackgroundImageFix" result="effect1_dropShadow_335_2"/>
<feBlend mode="normal" in="SourceGraphic" in2="effect1_dropShadow_335_2" result="shape"/>
</filter>
<filter id="filter1_d_335_2" x="13" y="13" width="41" height="41" filterUnits="userSpaceOnUse" color-interpolation-filters="sRGB">
<feFlood flood-opacity="0" result="BackgroundImageFix"/>
<feColorMatrix in="SourceAlpha" type="matrix" values="0 0 0 0 0 0 0 0 0 0 0 0 0 0 0 0 0 0 127 0" result="hardAlpha"/>
<feOffset dy="4"/>
<feGaussianBlur stdDeviation="2"/>
<feComposite in2="hardAlpha" operator="out"/>
<feColorMatrix type="matrix" values="0 0 0 0 0 0 0 0 0 0 0 0 0 0 0 0 0 0 0.25 0"/>
<feBlend mode="normal" in2="BackgroundImageFix" result="effect1_dropShadow_335_2"/>
<feBlend mode="normal" in="SourceGraphic" in2="effect1_dropShadow_335_2" result="shape"/>
</filter>
</defs>
</svg>
