<svg width="293" height="237" viewBox="0 0 293 237"  xmlns="http://www.w3.org/2000/svg">
<g clip-path="url(#clip0_19_72)">
<path d="M83.3575 158.911C101.912 158.911 116.954 143.851 116.954 125.274C116.954 106.696 101.912 91.636 83.3575 91.636C64.8027 91.636 49.761 106.696 49.761 125.274C49.761 143.851 64.8027 158.911 83.3575 158.911Z" fill="#20659F"/>
<path d="M74.2803 174.394L82.5446 179.521V144.862L73.2813 139.115C72.5155 138.64 71.9559 137.894 71.7134 137.025C72.5983 136.856 73.5145 137.026 74.2803 137.501L82.5446 142.628V129.188C82.5446 126.588 82.8631 123.998 83.4929 121.476C84.1227 123.998 84.4412 126.588 84.4412 129.188V151.124L96.6333 143.56C97.6069 142.956 98.7333 142.645 99.8784 142.664C99.3855 143.699 98.6059 144.57 97.6323 145.174L84.4412 153.358V236.016H82.5446V181.755L73.2813 176.008C72.5155 175.533 71.9559 174.787 71.7134 173.918C72.5983 173.749 73.5145 173.918 74.2803 174.394Z" fill="#CCCCCC"/>
<path d="M33.5965 161.767C52.1514 161.767 67.1931 146.707 67.1931 128.13C67.1931 109.552 52.1514 94.492 33.5965 94.492C15.0417 94.492 0 109.552 0 128.13C0 146.707 15.0417 161.767 33.5965 161.767Z" fill="#20659F"/>
<path d="M42.6738 177.25L34.4095 182.377V147.718L43.6727 141.971C44.4386 141.496 44.9982 140.75 45.2407 139.881C44.3557 139.712 43.4396 139.882 42.6737 140.357L34.4095 145.484V132.044C34.4094 129.444 34.091 126.854 33.4612 124.332C32.8313 126.854 32.5129 129.444 32.5129 132.044V153.98L20.3208 146.416C19.3472 145.812 18.2208 145.501 17.0757 145.52C17.5686 146.555 18.3482 147.426 19.3218 148.03L32.5129 156.214V235.505H34.4095V184.611L43.6727 178.864C44.4386 178.389 44.9982 177.643 45.2407 176.774C44.3557 176.605 43.4396 176.774 42.6738 177.25Z" fill="#CCCCCC"/>
<path d="M58.0014 115.831C89.9482 115.831 115.846 89.9014 115.846 57.9155C115.846 25.9297 89.9482 0 58.0014 0C26.0547 0 0.156738 25.9297 0.156738 57.9155C0.156738 89.9014 26.0547 115.831 58.0014 115.831Z" fill="#20659F"/>
<path d="M73.63 142.488L59.401 151.316V91.6417L75.35 81.7465C76.6686 80.9285 77.6321 79.6443 78.0497 78.1485L78.0497 78.1485H78.0497C76.526 77.8571 74.9486 78.1493 73.63 78.9674L59.401 87.7955V64.6557C59.401 60.1792 58.8527 55.7196 57.7683 51.3767C56.6839 55.7195 56.1356 60.1792 56.1356 64.6557V102.424L35.1438 89.4003C33.4677 88.3603 31.5283 87.8246 29.5566 87.857C30.4053 89.6391 31.7476 91.1394 33.4238 92.1794L56.1356 106.27V235.632H59.401V155.162L75.35 145.267C76.6686 144.449 77.6321 143.165 78.0497 141.669L78.0497 141.669H78.0497C76.526 141.377 74.9486 141.67 73.63 142.488Z" fill="#CCCCCC"/>
<path d="M292.613 235.526H11.606V236.218H292.613V235.526Z" fill="#3F3D56"/>
<path d="M222.221 55.7146H221.437V16.277C221.437 12.6985 220.017 9.26648 217.489 6.73606C214.962 4.20563 211.534 2.78406 207.96 2.78406H120.24C116.666 2.78406 113.238 4.20563 110.71 6.73606C108.183 9.26648 106.763 12.6985 106.763 16.277V33.5561H106.466C106.256 33.5561 106.055 33.6396 105.906 33.7882C105.758 33.9369 105.674 34.1384 105.674 34.3486V42.0763C105.674 42.2864 105.758 42.488 105.906 42.6366C106.055 42.7853 106.256 42.8688 106.466 42.8688H106.763V50.6033H106.397C106.293 50.6033 106.19 50.6238 106.094 50.6636C105.998 50.7035 105.911 50.7618 105.837 50.8354C105.764 50.909 105.705 50.9964 105.665 51.0925C105.626 51.1887 105.605 51.2918 105.605 51.3958V66.0205C105.605 66.2306 105.689 66.4322 105.837 66.5808C105.985 66.7294 106.187 66.8129 106.397 66.8129H106.763V72.485H106.431C106.327 72.485 106.224 72.5055 106.128 72.5453C106.032 72.5851 105.945 72.6434 105.872 72.717C105.798 72.7906 105.74 72.878 105.7 72.9741C105.66 73.0702 105.64 73.1733 105.64 73.2773V88.0406C105.64 88.2508 105.723 88.4523 105.872 88.6009C106.02 88.7496 106.221 88.8331 106.431 88.8331H106.763V222.632C106.763 226.211 108.183 229.643 110.71 232.173C113.238 234.704 116.665 236.125 120.24 236.125H207.96C211.534 236.125 214.962 234.704 217.49 232.173C220.017 229.643 221.437 226.211 221.437 222.632V83.9986H222.221C222.431 83.9986 222.633 83.9151 222.781 83.7665C222.929 83.6179 223.013 83.4163 223.013 83.2062V56.5071C223.013 56.2969 222.929 56.0954 222.781 55.9467C222.633 55.7981 222.431 55.7146 222.221 55.7146Z" fill="#3F3D56"/>
<path d="M167.714 13.1796H154.375C153.975 13.1792 153.591 13.0198 153.308 12.7364C153.025 12.4529 152.865 12.0686 152.865 11.6676V11.0894C152.865 10.6885 153.025 10.3041 153.308 10.0207C153.591 9.73722 153.975 9.5778 154.375 9.57739H167.714C168.114 9.5778 168.498 9.73722 168.781 10.0207C169.064 10.3041 169.223 10.6885 169.224 11.0894V11.6676C169.223 12.0686 169.064 12.4529 168.781 12.7364C168.498 13.0198 168.114 13.1792 167.714 13.1796Z" fill="white"/>
<path d="M173.316 13.2283C174.336 13.2283 175.162 12.4009 175.162 11.3803C175.162 10.3597 174.336 9.53229 173.316 9.53229C172.297 9.53229 171.471 10.3597 171.471 11.3803C171.471 12.4009 172.297 13.2283 173.316 13.2283Z" fill="white"/>
<path d="M205.247 8.86096H192.113V10.4425C192.113 12.4341 191.322 14.3442 189.916 15.7526C188.509 17.1609 186.601 17.9521 184.612 17.9521H142.769C141.784 17.9525 140.809 17.7588 139.9 17.382C138.99 17.0052 138.163 16.4527 137.467 15.756C136.77 15.0593 136.218 14.2321 135.84 13.3216C135.463 12.4111 135.269 11.4351 135.268 10.4494V8.86096H122.953C120.538 8.86096 118.221 9.82169 116.513 11.5318C114.805 13.2419 113.845 15.5613 113.845 17.9798V220.926C113.845 223.345 114.805 225.664 116.513 227.374C118.221 229.084 120.538 230.045 122.953 230.045H205.247C207.662 230.045 209.977 229.085 211.685 227.375C213.392 225.666 214.351 223.347 214.351 220.93V17.9798C214.352 16.7827 214.117 15.5973 213.659 14.4912C213.202 13.3851 212.532 12.38 211.687 11.5332C210.842 10.6865 209.839 10.0147 208.734 9.55615C207.63 9.09764 206.446 8.86142 205.25 8.86096H205.247Z" fill="var(--teste)"/>
<path d="M181.726 205.418H146.47C143.95 205.418 141.532 204.416 139.749 202.631C137.967 200.846 136.965 198.426 136.965 195.902C136.965 193.378 137.967 190.957 139.749 189.172C141.532 187.388 143.95 186.385 146.47 186.385H181.726C184.247 186.385 186.665 187.388 188.447 189.172C190.23 190.957 191.231 193.378 191.231 195.902C191.231 198.426 190.23 200.846 188.447 202.631C186.665 204.416 184.247 205.418 181.726 205.418Z" />
<path d="M195.552 127.246H132.645C131.774 127.246 130.939 126.9 130.323 126.283C129.707 125.667 129.361 124.831 129.361 123.959C129.361 123.087 129.707 122.25 130.323 121.634C130.939 121.017 131.774 120.671 132.645 120.671H195.552C196.423 120.671 197.258 121.017 197.874 121.634C198.489 122.25 198.835 123.087 198.835 123.959C198.835 124.831 198.489 125.667 197.874 126.283C197.258 126.9 196.423 127.246 195.552 127.246Z" />
<path d="M195.552 136.936H132.645C131.774 136.936 130.939 136.59 130.323 135.973C129.707 135.357 129.361 134.52 129.361 133.648C129.361 132.777 129.707 131.94 130.323 131.324C130.939 130.707 131.774 130.361 132.645 130.361H195.552C196.423 130.361 197.258 130.707 197.874 131.324C198.489 131.94 198.835 132.777 198.835 133.648C198.835 134.52 198.489 135.357 197.874 135.973C197.258 136.59 196.423 136.936 195.552 136.936Z" />
<path d="M195.552 146.626H132.645C131.774 146.626 130.939 146.28 130.323 145.663C129.707 145.046 129.361 144.21 129.361 143.338C129.361 142.466 129.707 141.63 130.323 141.014C130.939 140.397 131.774 140.051 132.645 140.051H195.552C196.423 140.051 197.258 140.397 197.874 141.014C198.489 141.63 198.835 142.466 198.835 143.338C198.835 144.21 198.489 145.046 197.874 145.663C197.258 146.28 196.423 146.626 195.552 146.626Z" />
<path d="M195.552 156.316H132.645C131.774 156.316 130.939 155.969 130.323 155.353C129.707 154.736 129.361 153.9 129.361 153.028C129.361 152.156 129.707 151.32 130.323 150.703C130.939 150.087 131.774 149.74 132.645 149.74H195.552C196.423 149.74 197.258 150.087 197.874 150.703C198.489 151.32 198.835 152.156 198.835 153.028C198.835 153.9 198.489 154.736 197.874 155.353C197.258 155.969 196.423 156.316 195.552 156.316Z" fill="#BCC2C8"/>
<path d="M152.692 166.006H132.645C131.774 166.006 130.939 165.659 130.323 165.043C129.707 164.426 129.361 163.59 129.361 162.718C129.361 161.846 129.707 161.01 130.323 160.393C130.939 159.777 131.774 159.43 132.645 159.43H152.692C153.563 159.43 154.398 159.777 155.014 160.393C155.63 161.01 155.976 161.846 155.976 162.718C155.976 163.59 155.63 164.426 155.014 165.043C154.398 165.659 153.563 166.006 152.692 166.006H152.692Z" fill="#BCC2C8"/>
<path d="M205.398 100.305H122.799C122.069 100.304 121.369 100.013 120.853 99.4962C120.336 98.9793 120.046 98.2784 120.045 97.5473V36.1686C120.046 35.4376 120.336 34.7367 120.853 34.2198C121.369 33.7028 122.069 33.4121 122.799 33.4113H205.398C206.128 33.4121 206.828 33.7028 207.344 34.2198C207.86 34.7367 208.151 35.4376 208.152 36.1686V97.5473C208.151 98.2784 207.86 98.9792 207.344 99.4962C206.828 100.013 206.128 100.304 205.398 100.305Z" fill="#BCC2C8"/>
<g opacity="0.1">
<path d="M220.028 82.7838C220.028 82.3086 220.028 81.831 220.028 81.3511C220.009 81.7212 220.009 82.092 220.028 82.462C220.024 82.5693 220.028 82.6766 220.028 82.7838Z" fill="black"/>
</g>
<path d="M233.807 109.996C238.815 109.996 242.876 105.931 242.876 100.916C242.876 95.9012 238.815 91.8358 233.807 91.8358C228.798 91.8358 224.737 95.9012 224.737 100.916C224.737 105.931 228.798 109.996 233.807 109.996Z" fill="#FFB8B8"/>
<path d="M257.394 174.547C257.748 174.222 258.027 173.824 258.21 173.38C258.394 172.936 258.478 172.457 258.457 171.977C258.435 171.497 258.309 171.028 258.087 170.602C257.865 170.176 257.553 169.804 257.171 169.512L255.935 158.514L249.048 160.396L252.401 170.295C251.954 170.969 251.769 171.783 251.881 172.584C251.994 173.385 252.396 174.117 253.011 174.642C253.627 175.166 254.413 175.445 255.221 175.428C256.028 175.411 256.802 175.097 257.394 174.547V174.547Z" fill="#FFB8B8"/>
<path d="M262.426 230.23L266.227 227.769L258.553 211.918L252.942 215.551L262.426 230.23Z" fill="#FFB8B8"/>
<path d="M275.841 226.555L263.895 234.292L260.909 229.671L268.412 224.811C268.996 224.434 269.648 224.174 270.331 224.049C271.015 223.923 271.716 223.934 272.396 224.08C273.075 224.226 273.719 224.504 274.291 224.899C274.863 225.294 275.352 225.798 275.729 226.383L275.841 226.555Z" fill="#2F2E41"/>
<path d="M228.763 231.841H233.29L235.445 214.359H228.763V231.841Z" fill="#FFB8B8"/>
<path d="M242.021 236.05H227.793V230.546H236.729C238.133 230.546 239.479 231.104 240.471 232.098C241.463 233.092 242.021 234.439 242.021 235.844V236.05V236.05Z" fill="#2F2E41"/>
<path d="M246.932 118.946C246.33 120.909 248.464 123.045 249.153 124.974C249.842 126.903 250.768 128.759 251.141 130.778C251.396 132.166 257.171 162.824 256.893 164.69C255.115 164.157 253.201 164.333 251.55 165.181C250.396 163.152 249.703 160.894 249.519 158.567C249.45 157.187 249.463 155.804 249.559 154.426C249.738 150.525 248.049 146.62 247.993 142.717C248.011 141.364 247.904 140.012 247.674 138.679C247.489 137.762 247.506 136.046 247.307 135.132C246.991 133.68 248.352 133.01 248.276 131.521L247.862 123.39C247.775 121.966 246.347 120.219 246.932 118.946Z" fill="#2F2E41"/>
<path d="M226.457 153.061C225.001 155.334 221.937 155.826 219.794 157.455C216.519 159.958 224.874 216.192 227.632 226.182C234.91 225.089 235.164 225.093 236.001 224.725C236.838 224.357 237.595 195.794 239.364 189.906C242.673 193.029 253.09 219.868 255.287 225.818C264.021 223.632 255.288 225.818 266.568 222.903C266.473 220.841 249.898 153.648 249.294 148.354C241.711 149.866 234.018 151.553 226.457 153.061Z" fill="#2F2E41"/>
<path d="M225.475 110.834C224.576 113.501 225.8 123.875 225.89 126.208C226.018 128.326 226.018 130.449 225.89 132.567C225.579 136.234 224.489 139.927 225.22 143.533C225.699 145.919 226.551 148.137 226.749 150.565C226.884 152.247 226.842 153.957 227.374 155.553C229.334 154.711 246.713 151.82 247.99 150.138C247.117 145.913 247.962 141.55 247.383 137.274C247.047 134.81 246.215 132.438 245.823 129.985C245.338 126.956 245.543 123.816 244.661 120.875C244.172 119.386 243.55 117.943 242.804 116.565C242.045 114.998 241.092 113.711 240.766 113.711C239.94 113.756 225.528 110.597 225.475 110.834Z" fill="#20659F"/>
<path d="M222.148 174.319C222.148 174.319 225.162 168.299 225.313 164.856C225.366 163.619 228.749 158.699 230.272 157.583C233.885 154.933 236.548 137.174 235.327 132.864C233.216 125.414 229.659 118.469 226.049 111.622C225.942 111.367 225.768 111.145 225.545 110.98C224.812 110.523 224.016 111.423 223.515 112.127C221.815 114.513 219.015 115.789 216.45 117.199C213.884 118.609 211.26 120.488 210.485 123.311C209.964 125.207 210.37 127.217 210.765 129.138C211.16 131.058 212.54 132.584 213.585 134.202C214.795 135.987 217.941 143.905 217.917 144.845C217.979 150.654 218.037 156.484 217.335 162.254C216.94 165.515 216.592 172.067 216.592 172.067L222.148 174.319Z" fill="#2F2E41"/>
<path d="M249.514 168.094C243.966 155.452 244.277 141.065 240.751 127.719C239.704 123.757 238.304 119.776 238.556 115.685C238.601 114.953 238.755 114.132 239.365 113.722C239.909 113.358 240.648 113.456 241.244 113.722C241.841 113.989 242.35 114.423 242.925 114.721C243.851 115.194 244.93 115.329 245.82 115.865C247.142 116.661 247.817 118.175 248.408 119.599C249.671 122.641 250.928 125.768 251.029 129.065C251.242 135.469 248.405 141.623 249.884 147.851C250.202 149.079 250.584 150.29 251.026 151.479C252.508 155.774 253.724 160.158 254.667 164.603C254.832 165.363 249.746 168.627 249.514 168.094Z" fill="#2F2E41"/>
<path d="M231.902 165.103C231.977 164.628 231.946 164.143 231.813 163.681C231.679 163.22 231.446 162.793 231.131 162.431C230.815 162.07 230.423 161.782 229.984 161.588C229.545 161.394 229.069 161.299 228.589 161.309L220.766 153.49L216.559 159.265L225.351 164.902C225.421 165.708 225.785 166.46 226.372 167.015C226.959 167.571 227.73 167.891 228.537 167.916C229.345 167.941 230.134 167.668 230.754 167.15C231.374 166.631 231.783 165.903 231.902 165.103Z" fill="#FFB8B8"/>
<path d="M206.976 147.346C207.105 148.521 216.961 160.91 222.316 164.954C222.005 163.359 226.203 158.155 227.561 157.342C224.167 154.136 217.076 146.701 216.842 146.294C216.074 144.811 216.842 143.039 217.511 141.506C219.62 136.63 220.614 131.098 219.261 125.958C218.751 124.029 217.861 122.097 216.239 120.911C215.531 120.396 214.573 120.042 213.786 120.435C213.457 120.625 213.171 120.882 212.946 121.189C210.434 124.248 206.881 146.474 206.976 147.346Z" fill="#2F2E41"/>
<path d="M229.941 108.862C230.47 106.612 227.794 101.772 228.323 99.5226C228.682 97.9992 232.26 99.0348 233.095 97.7116C233.93 96.3885 235.328 95.3165 236.891 95.299C238.688 95.2788 240.456 96.6132 242.158 96.0364C243.878 95.4533 244.429 93.0939 243.668 91.4421C242.907 89.7903 241.268 88.7378 239.649 87.913C236.891 86.5085 233.681 85.4829 230.73 86.4121C228.946 86.9739 227.454 88.191 226.011 89.3815C224.695 90.4666 223.357 91.5764 222.437 93.0134C220.635 95.8286 220.744 99.6217 222.284 102.589C223.823 105.556 226.629 107.733 229.721 108.997" fill="#2F2E41"/>
</g>
<defs>
<clipPath id="clip0_19_72">
<rect width="292.613" height="236.218" fill="white"/>
</clipPath>
</defs>
</svg>
