<svg width="29" height="29" viewBox="0 0 29 29" fill="none" xmlns="http://www.w3.org/2000/svg">
<g clip-path="url(#clip0_333_391)">
<path d="M12.5 10.1953C11.9231 10.1953 11.3591 10.3664 10.8794 10.6869C10.3997 11.0074 10.0258 11.463 9.80505 11.996C9.58427 12.529 9.5265 13.1155 9.63906 13.6814C9.75161 14.2472 10.0294 14.767 10.4374 15.1749C10.8453 15.5829 11.3651 15.8607 11.9309 15.9732C12.4968 16.0858 13.0833 16.028 13.6163 15.8073C14.1493 15.5865 14.6049 15.2126 14.9254 14.7329C15.2459 14.2532 15.417 13.6892 15.417 13.1123C15.4161 12.3389 15.1085 11.5975 14.5617 11.0506C14.0148 10.5038 13.2734 10.1962 12.5 10.1953ZM12.0752 15.1356C11.6827 15.0524 11.3227 14.8571 11.039 14.5734C10.7552 14.2896 10.5599 13.9297 10.4767 13.5371H12.0752V15.1356ZM12.0752 12.6875H10.4767C10.5599 12.295 10.7552 11.935 11.039 11.6513C11.3227 11.3676 11.6827 11.1723 12.0752 11.0891V12.6875ZM12.9248 15.1356V13.5371H14.5233C14.4401 13.9297 14.2448 14.2896 13.961 14.5734C13.6773 14.8571 13.3173 15.0524 12.9248 15.1356ZM12.9248 12.6875V11.0891C13.3173 11.1723 13.6773 11.3676 13.961 11.6513C14.2448 11.935 14.4401 12.295 14.5233 12.6875H12.9248ZM26.5752 28.1504H25.1025V17.8595C25.132 17.8609 25.1614 17.8617 25.1909 17.8617C25.6707 17.8616 26.1309 17.6709 26.4701 17.3316C26.8094 16.9923 27 16.5321 27 16.0523C27 15.9706 26.9764 15.8907 26.9322 15.8221C26.8879 15.7534 26.8248 15.699 26.7504 15.6653L18.1547 11.7736V10.3326C18.611 10.3156 19.043 10.1224 19.3598 9.79351C19.6767 9.46467 19.8537 9.0258 19.8537 8.56916C19.8537 8.48749 19.8301 8.40756 19.7859 8.33893C19.7416 8.2703 19.6785 8.21588 19.6041 8.18219L13.916 5.60669V4.30469H14.9058C15.0935 4.30448 15.2734 4.22982 15.4062 4.09708C15.5389 3.96435 15.6136 3.78439 15.6138 3.59668V2.18066C15.6136 1.99295 15.5389 1.81299 15.4062 1.68026C15.2734 1.54753 15.0935 1.47287 14.9058 1.47266H13.916V0.708008C13.9158 0.520297 13.8411 0.340334 13.7084 0.207603C13.5757 0.0748708 13.3957 0.000209884 13.208 0L11.792 0C11.6043 0.000209884 11.4243 0.0748708 11.2916 0.207603C11.1589 0.340334 11.0842 0.520297 11.084 0.708008V1.47266H10.0942C9.90654 1.47287 9.72657 1.54753 9.59384 1.68026C9.46111 1.81299 9.38645 1.99295 9.38624 2.18066V3.59668C9.38645 3.78439 9.46111 3.96435 9.59384 4.09708C9.72657 4.22982 9.90654 4.30448 10.0942 4.30469H11.084V5.60669L5.39591 8.18219C5.32151 8.21588 5.25841 8.2703 5.21415 8.33893C5.16989 8.40756 5.14635 8.48749 5.14635 8.56916C5.14633 9.0258 5.32333 9.46467 5.64016 9.79351C5.95698 10.1224 6.38896 10.3156 6.84528 10.3326V11.7736L3.93339 13.092C3.8821 13.1147 3.83581 13.1473 3.7972 13.188C3.75859 13.2287 3.72842 13.2766 3.70843 13.329C3.68843 13.3814 3.67902 13.4373 3.68072 13.4933C3.68242 13.5494 3.69521 13.6046 3.71835 13.6556C3.74148 13.7067 3.77451 13.7528 3.81552 13.791C3.85652 13.8293 3.90471 13.859 3.95728 13.8786C4.00985 13.8981 4.06577 13.9071 4.12182 13.9049C4.17787 13.9027 4.23293 13.8895 4.28382 13.8659L6.84528 12.7062V13.8554L0.149115 16.9497C0.0244243 16.9968 -0.108689 17.0174 -0.241779 17.0103C-0.374868 17.0032 -0.505027 16.9685 -0.623996 16.9084C-0.742964 16.8483 -0.848145 16.7642 -0.932864 16.6613C-1.01758 16.5584 -1.07999 16.439 -1.11612 16.3107L2.81853 14.5293C2.86998 14.5067 2.91643 14.4741 2.95519 14.4334C2.99396 14.3928 3.02428 14.3448 3.04438 14.2923C3.06448 14.2399 3.07398 14.1839 3.07232 14.1278C3.07065 14.0716 3.05787 14.0163 3.03469 13.9651C3.01152 13.914 2.97842 13.8679 2.93731 13.8296C2.89621 13.7913 2.84791 13.7615 2.79522 13.742C2.74253 13.7225 2.68649 13.7136 2.63035 13.7159C2.5742 13.7182 2.51908 13.7316 2.46815 13.7553L-1.75044 15.6653C-1.82484 15.699 -1.88795 15.7534 -1.93221 15.822C-1.97648 15.8907 -2.00001 15.9706 -2 16.0523C-1.99997 16.5321 -1.80937 16.9923 -1.47011 17.3316C-1.13086 17.6709 -0.670724 17.8616 -0.190898 17.8617C-0.161445 17.8617 -0.131992 17.8609 -0.102539 17.8595V28.1504H-1.5752C-1.68786 28.1504 -1.79591 28.1951 -1.87558 28.2748C-1.95524 28.3545 -2 28.4625 -2 28.5752C-2 28.6879 -1.95524 28.7959 -1.87558 28.8756C-1.79591 28.9552 -1.68786 29 -1.5752 29H26.5752C26.6879 29 26.7959 28.9552 26.8756 28.8756C26.9552 28.7959 27 28.6879 27 28.5752C27 28.4625 26.9552 28.3545 26.8756 28.2748C26.7959 28.1951 26.6879 28.1504 26.5752 28.1504ZM6.84528 23.6758H3.73005V20.3906H6.84528V23.6758ZM6.84528 19.541H3.70173C3.48399 19.5413 3.27524 19.6279 3.12127 19.7818C2.9673 19.9358 2.88069 20.1446 2.88044 20.3623V23.7041C2.88069 23.9218 2.9673 24.1306 3.12127 24.2846C3.27524 24.4385 3.48399 24.5251 3.70173 24.5254H6.84528V28.1504H0.74707V17.6094L6.84528 14.7914V19.541ZM18.9685 8.82705C18.9311 8.95318 18.8671 9.0698 18.7806 9.169C18.6942 9.26819 18.5875 9.34764 18.4677 9.40196C18.3478 9.45628 18.2177 9.48419 18.0862 9.48381C17.9546 9.48342 17.8247 9.45475 17.7052 9.39974L13.916 7.64881V6.53927L18.9685 8.82705ZM10.2358 3.45508V2.32227H11.2256C11.4133 2.32206 11.5933 2.2474 11.726 2.11466C11.8587 1.98193 11.9334 1.80197 11.9336 1.61426V0.849609H13.0664V1.61426C13.0666 1.80197 13.1413 1.98193 13.274 2.11466C13.4067 2.2474 13.5867 2.32206 13.7744 2.32227H14.7642V3.45508H13.7744C13.5867 3.45529 13.4067 3.52995 13.274 3.66268C13.1413 3.79541 13.0666 3.97537 13.0664 4.16309V7.8684C13.0626 7.90108 13.0626 7.9341 13.0664 7.96679V8.32617H11.9336V4.16309C11.9334 3.97537 11.8587 3.79541 11.726 3.66268C11.5933 3.52995 11.4133 3.45529 11.2256 3.45508H10.2358ZM6.41804 9.34004C6.23039 9.2225 6.09274 9.03982 6.03147 8.82705L11.084 6.53933V7.64875L7.29484 9.39974C7.1558 9.46565 7.00217 9.49477 6.84865 9.48432C6.69513 9.47387 6.54687 9.42419 6.41804 9.34004ZM12.0752 28.1504H9.95117V23.2793C9.95201 22.6772 10.1656 22.0948 10.5543 21.635C10.943 21.1752 11.4817 20.8676 12.0752 20.7665V28.1504ZM15.0488 28.1504H12.9248V20.7665C13.5183 20.8676 14.057 21.1752 14.4457 21.635C14.8344 22.0948 15.048 22.6772 15.0488 23.2793V28.1504ZM24.2529 28.1504H18.1547V24.5254H21.2983C21.516 24.5251 21.7248 24.4385 21.8787 24.2846C22.0327 24.1306 22.1193 23.9218 22.1196 23.7041V20.3623C22.1193 20.1446 22.0327 19.9358 21.8787 19.7818C21.7248 19.6279 21.516 19.5413 21.2983 19.541H18.1547V18.1533C18.1547 18.0407 18.11 17.9326 18.0303 17.8529C17.9506 17.7733 17.8426 17.7285 17.7299 17.7285C17.6172 17.7285 17.5092 17.7733 17.4295 17.8529C17.3499 17.9326 17.3051 18.0407 17.3051 18.1533V28.1504H15.8984V23.2793C15.8984 22.378 15.5404 21.5136 14.9031 20.8762C14.2657 20.2389 13.4013 19.8809 12.5 19.8809C11.5987 19.8809 10.7343 20.2389 10.0969 20.8762C9.45961 21.5136 9.10156 22.378 9.10156 23.2793V28.1504H7.69489V10.1508L11.0938 8.5802C11.1206 8.74617 11.2055 8.89721 11.3334 9.00631C11.4613 9.11542 11.6239 9.17548 11.792 9.17578H13.208C13.3761 9.17549 13.5386 9.11543 13.6666 9.00633C13.7945 8.89724 13.8794 8.74622 13.9062 8.58026L17.3051 10.1509V16.4541C17.3051 16.5668 17.3499 16.6748 17.4295 16.7545C17.5092 16.8342 17.6172 16.8789 17.7299 16.8789C17.8426 16.8789 17.9506 16.8342 18.0303 16.7545C18.11 16.6748 18.1547 16.5668 18.1547 16.4541V14.7914L24.2529 17.6094V28.1504ZM18.1547 23.6758V20.3906H21.27V23.6758H18.1547ZM18.1547 13.8554V12.7062L26.1161 16.3107C26.08 16.439 26.0176 16.5584 25.9329 16.6613C25.8481 16.7642 25.743 16.8483 25.624 16.9084C25.505 16.9685 25.3749 17.0032 25.2418 17.0103C25.1087 17.0174 24.9756 16.9968 24.8509 16.9497L18.1547 13.8554Z" fill="#666666"/>
</g>
<defs>
<clipPath id="clip0_333_391">
<rect width="29" height="29" fill="white"/>
</clipPath>
</defs>
</svg>
