<svg width="24" height="24" viewBox="0 0 24 24" fill="none" xmlns="http://www.w3.org/2000/svg">
<g clip-path="url(#clip0_333_395)">
<path d="M5.48122 1.99202C5.39267 1.87811 5.28089 1.78434 5.15332 1.71695C5.02575 1.64956 4.8853 1.61009 4.7413 1.60115C4.59729 1.59221 4.45304 1.61401 4.31811 1.66511C4.18319 1.71621 4.06067 1.79543 3.95872 1.89752L2.40772 3.45002C1.68322 4.17601 1.41622 5.20352 1.73272 6.10502C3.04633 9.8364 5.18316 13.2242 7.98472 16.017C10.7776 18.8185 14.1654 20.9554 17.8967 22.269C18.7982 22.5855 19.8257 22.3185 20.5517 21.594L22.1027 20.043C22.2048 19.9411 22.284 19.8185 22.3351 19.6836C22.3862 19.5487 22.408 19.4044 22.3991 19.2604C22.3901 19.1164 22.3507 18.976 22.2833 18.8484C22.2159 18.7208 22.1221 18.6091 22.0082 18.5205L18.5477 15.8295C18.426 15.7351 18.2845 15.6696 18.1338 15.6379C17.9831 15.6062 17.8271 15.6092 17.6777 15.6465L14.3927 16.467C13.9542 16.5766 13.4949 16.5708 13.0593 16.4501C12.6237 16.3295 12.2268 16.0981 11.9072 15.7785L8.22322 12.093C7.90337 11.7736 7.67171 11.3767 7.55079 10.9412C7.42987 10.5056 7.42381 10.0461 7.53322 9.60752L8.35522 6.32252C8.39258 6.17311 8.39552 6.01717 8.36382 5.86646C8.33212 5.71575 8.2666 5.57421 8.17222 5.45252L5.48122 1.99202ZM2.82622 0.766515C3.08871 0.503939 3.40406 0.300211 3.75133 0.168857C4.09859 0.0375034 4.46983 -0.0184696 4.84039 0.00465481C5.21095 0.0277792 5.57235 0.129472 5.90059 0.30298C6.22883 0.476489 6.51641 0.717843 6.74422 1.01102L9.43522 4.47002C9.92872 5.10452 10.1027 5.93102 9.90772 6.71102L9.08722 9.99602C9.0448 10.1662 9.04709 10.3444 9.09387 10.5134C9.14065 10.6824 9.23034 10.8364 9.35422 10.9605L13.0397 14.646C13.164 14.7701 13.3183 14.86 13.4875 14.9068C13.6568 14.9536 13.8354 14.9557 14.0057 14.913L17.2892 14.0925C17.6741 13.9963 18.0759 13.9888 18.4641 14.0707C18.8524 14.1525 19.2169 14.3216 19.5302 14.565L22.9892 17.256C24.2327 18.2235 24.3467 20.061 23.2337 21.1725L21.6827 22.7235C20.5727 23.8335 18.9137 24.321 17.3672 23.7765C13.409 22.3838 9.81513 20.1178 6.85222 17.1465C3.88115 14.184 1.61513 10.5907 0.222218 6.63302C-0.320782 5.08802 0.166718 3.42752 1.27672 2.31752L2.82772 0.766515H2.82622Z" fill="#666666"/>
</g>
<defs>
<clipPath id="clip0_333_395">
<rect width="24" height="24" fill="white"/>
</clipPath>
</defs>
</svg>
