<svg width="29" height="29" viewBox="0 0 29 29" xmlns="http://www.w3.org/2000/svg">
<g clip-path="url(#clip0_825_6)">
<path d="M14.5 10.1953C13.9231 10.1953 13.3591 10.3664 12.8794 10.6869C12.3997 11.0074 12.0258 11.463 11.8051 11.996C11.5843 12.529 11.5265 13.1155 11.6391 13.6814C11.7516 14.2472 12.0294 14.767 12.4374 15.1749C12.8453 15.5829 13.3651 15.8607 13.9309 15.9732C14.4968 16.0858 15.0833 16.028 15.6163 15.8073C16.1493 15.5865 16.6049 15.2126 16.9254 14.7329C17.2459 14.2532 17.417 13.6892 17.417 13.1123C17.4161 12.3389 17.1085 11.5975 16.5617 11.0506C16.0148 10.5038 15.2734 10.1962 14.5 10.1953V10.1953ZM14.0752 15.1356C13.6827 15.0524 13.3227 14.8571 13.039 14.5734C12.7552 14.2896 12.5599 13.9297 12.4767 13.5371H14.0752V15.1356ZM14.0752 12.6875H12.4767C12.5599 12.295 12.7552 11.935 13.039 11.6513C13.3227 11.3676 13.6827 11.1723 14.0752 11.0891V12.6875ZM14.9248 15.1356V13.5371H16.5233C16.4401 13.9297 16.2448 14.2896 15.961 14.5734C15.6773 14.8571 15.3173 15.0524 14.9248 15.1356V15.1356ZM14.9248 12.6875V11.0891C15.3173 11.1723 15.6773 11.3676 15.961 11.6513C16.2448 11.935 16.4401 12.295 16.5233 12.6875H14.9248ZM28.5752 28.1504H27.1025V17.8595C27.132 17.8609 27.1614 17.8617 27.1909 17.8617C27.6707 17.8616 28.1309 17.6709 28.4701 17.3316C28.8094 16.9923 29 16.5321 29 16.0523C29 15.9706 28.9764 15.8907 28.9322 15.8221C28.8879 15.7534 28.8248 15.699 28.7504 15.6653L20.1547 11.7736V10.3326C20.611 10.3156 21.043 10.1224 21.3598 9.79351C21.6767 9.46467 21.8537 9.0258 21.8537 8.56916C21.8537 8.48749 21.8301 8.40756 21.7859 8.33893C21.7416 8.2703 21.6785 8.21588 21.6041 8.18219L15.916 5.60669V4.30469H16.9058C17.0935 4.30448 17.2734 4.22982 17.4062 4.09708C17.5389 3.96435 17.6136 3.78439 17.6138 3.59668V2.18066C17.6136 1.99295 17.5389 1.81299 17.4062 1.68026C17.2734 1.54753 17.0935 1.47287 16.9058 1.47266H15.916V0.708008C15.9158 0.520297 15.8411 0.340334 15.7084 0.207602C15.5757 0.0748708 15.3957 0.000209884 15.208 0L13.792 0C13.6043 0.000209884 13.4243 0.0748708 13.2916 0.207602C13.1589 0.340334 13.0842 0.520297 13.084 0.708008V1.47266H12.0942C11.9065 1.47287 11.7266 1.54753 11.5938 1.68026C11.4611 1.81299 11.3864 1.99295 11.3862 2.18066V3.59668C11.3864 3.78439 11.4611 3.96435 11.5938 4.09708C11.7266 4.22982 11.9065 4.30448 12.0942 4.30469H13.084V5.60669L7.39591 8.18219C7.32151 8.21588 7.25841 8.2703 7.21415 8.33893C7.16989 8.40756 7.14635 8.48749 7.14635 8.56916C7.14633 9.0258 7.32333 9.46467 7.64016 9.79351C7.95698 10.1224 8.38896 10.3156 8.84528 10.3326V11.7736L5.93339 13.092C5.8821 13.1147 5.83581 13.1473 5.7972 13.188C5.75859 13.2287 5.72842 13.2766 5.70843 13.329C5.68843 13.3814 5.67902 13.4373 5.68072 13.4933C5.68242 13.5494 5.69521 13.6046 5.71835 13.6556C5.74148 13.7067 5.77451 13.7528 5.81552 13.791C5.85653 13.8293 5.90471 13.859 5.95728 13.8786C6.00985 13.8981 6.06577 13.9071 6.12182 13.9049C6.17787 13.9027 6.23293 13.8895 6.28382 13.8659L8.84528 12.7062V13.8554L2.14912 16.9497C2.02442 16.9968 1.89131 17.0174 1.75822 17.0103C1.62513 17.0032 1.49497 16.9685 1.376 16.9084C1.25704 16.8483 1.15185 16.7642 1.06714 16.6613C0.982418 16.5584 0.920011 16.439 0.883877 16.3107L4.81853 14.5293C4.86998 14.5067 4.91643 14.4741 4.95519 14.4334C4.99396 14.3928 5.02428 14.3448 5.04438 14.2923C5.06448 14.2399 5.07398 14.1839 5.07232 14.1278C5.07065 14.0716 5.05786 14.0163 5.03469 13.9651C5.01152 13.914 4.97842 13.8679 4.93731 13.8296C4.89621 13.7913 4.84791 13.7615 4.79522 13.742C4.74253 13.7225 4.68649 13.7136 4.63035 13.7159C4.5742 13.7182 4.51908 13.7316 4.46815 13.7553L0.249559 15.6653C0.175158 15.699 0.112047 15.7534 0.0677859 15.822C0.0235248 15.8907 -1.01372e-05 15.9706 3.27555e-09 16.0523C3.00261e-05 16.5321 0.19063 16.9923 0.529886 17.3316C0.869142 17.6709 1.32928 17.8616 1.8091 17.8617C1.83855 17.8617 1.86801 17.8609 1.89746 17.8595V28.1504H0.424805C0.312139 28.1504 0.204089 28.1951 0.124422 28.2748C0.0447561 28.3545 3.27555e-09 28.4625 3.27555e-09 28.5752C3.27555e-09 28.6879 0.0447561 28.7959 0.124422 28.8756C0.204089 28.9552 0.312139 29 0.424805 29H28.5752C28.6879 29 28.7959 28.9552 28.8756 28.8756C28.9552 28.7959 29 28.6879 29 28.5752C29 28.4625 28.9552 28.3545 28.8756 28.2748C28.7959 28.1951 28.6879 28.1504 28.5752 28.1504ZM8.84528 23.6758H5.73005V20.3906H8.84528V23.6758ZM8.84528 19.541H5.70173C5.48399 19.5413 5.27524 19.6279 5.12127 19.7818C4.9673 19.9358 4.88069 20.1446 4.88044 20.3623V23.7041C4.88069 23.9218 4.9673 24.1306 5.12127 24.2846C5.27524 24.4385 5.48399 24.5251 5.70173 24.5254H8.84528V28.1504H2.74707V17.6094L8.84528 14.7914V19.541ZM20.9685 8.82705C20.9311 8.95318 20.8671 9.0698 20.7806 9.169C20.6942 9.26819 20.5875 9.34764 20.4677 9.40196C20.3478 9.45628 20.2177 9.48419 20.0862 9.48381C19.9546 9.48342 19.8247 9.45475 19.7052 9.39974L15.916 7.64881V6.53927L20.9685 8.82705ZM12.2358 3.45508V2.32227H13.2256C13.4133 2.32206 13.5933 2.24739 13.726 2.11466C13.8587 1.98193 13.9334 1.80197 13.9336 1.61426V0.849609H15.0664V1.61426C15.0666 1.80197 15.1413 1.98193 15.274 2.11466C15.4067 2.24739 15.5867 2.32206 15.7744 2.32227H16.7642V3.45508H15.7744C15.5867 3.45529 15.4067 3.52995 15.274 3.66268C15.1413 3.79541 15.0666 3.97538 15.0664 4.16309V7.8684C15.0626 7.90108 15.0626 7.9341 15.0664 7.96679V8.32617H13.9336V4.16309C13.9334 3.97538 13.8587 3.79541 13.726 3.66268C13.5933 3.52995 13.4133 3.45529 13.2256 3.45508H12.2358ZM8.41804 9.34004C8.23039 9.2225 8.09274 9.03982 8.03147 8.82705L13.084 6.53933V7.64875L9.29484 9.39974C9.1558 9.46565 9.00217 9.49477 8.84865 9.48432C8.69513 9.47387 8.54687 9.42419 8.41804 9.34004V9.34004ZM14.0752 28.1504H11.9512V23.2793C11.952 22.6772 12.1656 22.0948 12.5543 21.635C12.943 21.1752 13.4817 20.8676 14.0752 20.7665V28.1504ZM17.0488 28.1504H14.9248V20.7665C15.5183 20.8676 16.057 21.1752 16.4457 21.635C16.8344 22.0948 17.048 22.6772 17.0488 23.2793V28.1504ZM26.2529 28.1504H20.1547V24.5254H23.2983C23.516 24.5251 23.7248 24.4385 23.8787 24.2846C24.0327 24.1306 24.1193 23.9218 24.1196 23.7041V20.3623C24.1193 20.1446 24.0327 19.9358 23.8787 19.7818C23.7248 19.6279 23.516 19.5413 23.2983 19.541H20.1547V18.1533C20.1547 18.0407 20.11 17.9326 20.0303 17.8529C19.9506 17.7733 19.8426 17.7285 19.7299 17.7285C19.6172 17.7285 19.5092 17.7733 19.4295 17.8529C19.3499 17.9326 19.3051 18.0407 19.3051 18.1533V28.1504H17.8984V23.2793C17.8984 22.378 17.5404 21.5136 16.9031 20.8762C16.2657 20.2389 15.4013 19.8809 14.5 19.8809C13.5987 19.8809 12.7343 20.2389 12.0969 20.8762C11.4596 21.5136 11.1016 22.378 11.1016 23.2793V28.1504H9.69489V10.1508L13.0938 8.58021C13.1206 8.74617 13.2055 8.89721 13.3334 9.00631C13.4613 9.11542 13.6239 9.17548 13.792 9.17578H15.208C15.3761 9.17549 15.5386 9.11543 15.6666 9.00633C15.7945 8.89724 15.8794 8.74622 15.9062 8.58026L19.3051 10.1509V16.4541C19.3051 16.5668 19.3499 16.6748 19.4295 16.7545C19.5092 16.8342 19.6172 16.8789 19.7299 16.8789C19.8426 16.8789 19.9506 16.8342 20.0303 16.7545C20.11 16.6748 20.1547 16.5668 20.1547 16.4541V14.7914L26.2529 17.6094V28.1504ZM20.1547 23.6758V20.3906H23.27V23.6758H20.1547ZM20.1547 13.8554V12.7062L28.1161 16.3107C28.08 16.439 28.0176 16.5584 27.9329 16.6613C27.8481 16.7642 27.743 16.8483 27.624 16.9084C27.505 16.9685 27.3749 17.0032 27.2418 17.0103C27.1087 17.0174 26.9756 16.9968 26.8509 16.9497L20.1547 13.8554Z"/>
</g>
<defs>
<clipPath id="clip0_825_6">
<rect width="29" height="29"/>
</clipPath>
</defs>
</svg>
