<svg width="29" height="29" viewBox="0 0 29 29" xmlns="http://www.w3.org/2000/svg">
<path d="M1 7.16667C1 6.32681 1.35558 5.52136 1.98851 4.9275C2.62145 4.33363 3.47989 4 4.375 4H24.625C25.5201 4 26.3785 4.33363 27.0115 4.9275C27.6444 5.52136 28 6.32681 28 7.16667V19.8333C28 20.6732 27.6444 21.4786 27.0115 22.0725C26.3785 22.6664 25.5201 23 24.625 23H4.375C3.47989 23 2.62145 22.6664 1.98851 22.0725C1.35558 21.4786 1 20.6732 1 19.8333V7.16667ZM4.375 5.58333C3.92745 5.58333 3.49822 5.75015 3.18176 6.04708C2.86529 6.34401 2.6875 6.74674 2.6875 7.16667V7.51025L14.5 14.1602L26.3125 7.51025V7.16667C26.3125 6.74674 26.1347 6.34401 25.8182 6.04708C25.5018 5.75015 25.0726 5.58333 24.625 5.58333H4.375ZM26.3125 9.35642L18.3677 13.8293L26.3125 18.4162V9.35642ZM26.2551 20.2434L16.7376 14.7477L14.5 16.0064L12.2624 14.7477L2.74488 20.2418C2.84077 20.5788 3.05253 20.8766 3.3473 21.089C3.64206 21.3014 4.00332 21.4166 4.375 21.4167H24.625C24.9965 21.4167 25.3576 21.3018 25.6523 21.0896C25.947 20.8775 26.1589 20.5801 26.2551 20.2434V20.2434ZM2.6875 18.4162L10.6323 13.8293L2.6875 9.35642V18.4162Z" />
</svg>
