<svg width="541" height="541" viewBox="0 0 541 541" fill="none" xmlns="http://www.w3.org/2000/svg">
<rect width="541" height="541" fill="#E8E8E8"/>
<path d="M411 270C411 347.32 348.32 410 271 410C193.68 410 131 347.32 131 270C131 192.68 193.68 130 271 130C348.32 130 411 192.68 411 270ZM177.138 270C177.138 321.839 219.161 363.862 271 363.862C322.839 363.862 364.862 321.839 364.862 270C364.862 218.161 322.839 176.138 271 176.138C219.161 176.138 177.138 218.161 177.138 270Z" fill="#D9D9D9"/>
<line x1="195.858" y1="354.858" x2="357.858" y2="192.858" stroke="#D9D9D9" stroke-width="40"/>
</svg>
