<svg width="29" height="29" viewBox="0 0 29 29" xmlns="http://www.w3.org/2000/svg">
<g clip-path="url(#clip0_825_10)">
<path d="M7.70913 4.07497C7.61689 3.95632 7.50046 3.85865 7.36758 3.78845C7.23469 3.71825 7.08838 3.67713 6.93838 3.66782C6.78838 3.65851 6.63811 3.68122 6.49757 3.73445C6.35702 3.78768 6.2294 3.8702 6.1232 3.97654L4.50757 5.59372C3.75288 6.34997 3.47476 7.42029 3.80445 8.35935C5.17279 12.2462 7.39866 15.7751 10.3169 18.6843C13.2262 21.6026 16.7551 23.8285 20.6419 25.1968C21.581 25.5265 22.6513 25.2484 23.4076 24.4937L25.0232 22.8781C25.1295 22.7719 25.2121 22.6443 25.2653 22.5037C25.3185 22.3632 25.3412 22.2129 25.3319 22.0629C25.3226 21.9129 25.2815 21.7666 25.2113 21.6337C25.1411 21.5008 25.0434 21.3844 24.9248 21.2922L21.3201 18.489C21.1933 18.3907 21.0459 18.3225 20.8889 18.2895C20.7319 18.2564 20.5695 18.2595 20.4138 18.2984L16.9919 19.1531C16.5352 19.2673 16.0567 19.2612 15.603 19.1355C15.1492 19.0098 14.7358 18.7688 14.4029 18.4359L10.5654 14.5968C10.2322 14.2641 9.99089 13.8507 9.86494 13.397C9.73898 12.9433 9.73267 12.4647 9.84663 12.0078L10.7029 8.58591C10.7418 8.43028 10.7449 8.26784 10.7118 8.11085C10.6788 7.95386 10.6106 7.80642 10.5123 7.67966L7.70913 4.07497ZM4.94351 2.79841C5.21694 2.52489 5.54543 2.31268 5.90716 2.17585C6.2689 2.03902 6.65561 1.98072 7.04161 2.00481C7.4276 2.02889 7.80406 2.13482 8.14598 2.31556C8.4879 2.4963 8.78746 2.74771 9.02476 3.0531L11.8279 6.65622C12.3419 7.31716 12.5232 8.1781 12.3201 8.9906L11.4654 12.4125C11.4212 12.5897 11.4236 12.7754 11.4723 12.9514C11.521 13.1274 11.6145 13.2879 11.7435 13.4172L15.5826 17.2562C15.712 17.3855 15.8727 17.4791 16.0491 17.5278C16.2254 17.5766 16.4114 17.5788 16.5888 17.5343L20.0091 16.6797C20.4101 16.5794 20.8286 16.5716 21.233 16.6569C21.6374 16.7422 22.0172 16.9182 22.3435 17.1718L25.9466 19.975C27.2419 20.9828 27.3607 22.8968 26.2013 24.0547L24.5857 25.6703C23.4294 26.8265 21.7013 27.3343 20.0904 26.7672C15.9672 25.3164 12.2236 22.956 9.13726 19.8609C6.0424 16.775 3.68196 13.0319 2.23101 8.90935C1.66538 7.29997 2.1732 5.57028 3.32945 4.41403L4.94507 2.79841H4.94351Z" />
</g>
<defs>
<clipPath id="clip0_825_10">
<rect width="25" height="25" transform="translate(2 2)"/>
</clipPath>
</defs>
</svg>
