<svg width="92" height="92" viewBox="0 0 92 92" fill="none" xmlns="http://www.w3.org/2000/svg">
<path d="M75.5808 74.0543L68.6501 73.9837L66.4252 69.5245C66.4155 69.5053 66.4054 69.4861 66.3948 69.4672C65.6773 68.184 65.4866 66.6722 65.8631 65.251C65.8721 65.2172 65.8797 65.1831 65.8861 65.1488L67.7977 54.8902C67.8002 54.8771 67.8023 54.864 67.8045 54.8507C68.8151 48.4058 68.1932 41.8104 65.9956 35.668L54.4977 3.60509C54.3868 3.29573 54.1731 3.03373 53.8924 2.86276C53.6117 2.69179 53.2809 2.62217 52.9551 2.66551L50.8071 2.95103C49.8507 3.078 48.9305 3.40004 48.1036 3.89717C47.2767 4.39431 46.5607 5.05596 46 5.84112C45.4392 5.05596 44.7232 4.39431 43.8963 3.89717C43.0694 3.40004 42.1492 3.078 41.1928 2.95103L39.0448 2.66551C38.719 2.62217 38.3882 2.69179 38.1075 2.86276C37.8268 3.03373 37.6131 3.29573 37.5022 3.60509L26.0043 35.668C23.8066 41.8105 23.1846 48.4062 24.1954 54.8513C24.1976 54.8645 24.1997 54.8777 24.2022 54.8908L26.1138 65.1493C26.1202 65.1836 26.1278 65.2178 26.1368 65.2516C26.5132 66.6725 26.3227 68.1841 25.6054 69.4672C25.5948 69.4852 25.5848 69.5053 25.5751 69.5245L23.3502 73.9837L16.4194 74.0543C16.2306 74.0562 16.0439 74.0953 15.8702 74.1694C15.6964 74.2435 15.539 74.3511 15.4069 74.4861C15.2747 74.6211 15.1705 74.7807 15.1001 74.956C15.0297 75.1313 14.9946 75.3187 14.9967 75.5076L15.134 87.9042C15.139 88.2805 15.2932 88.6394 15.5628 88.9021C15.8323 89.1647 16.1951 89.3095 16.5715 89.3047H16.5851L45.9893 89.0248C45.9928 89.0248 45.996 89.0348 45.9994 89.0346C46.0028 89.0345 46.0061 89.0194 46.0095 89.0194L75.4148 89.3047H75.4297C75.806 89.3095 76.1688 89.1647 76.4384 88.9021C76.7079 88.6394 76.8622 88.2805 76.8672 87.9042L77.0045 75.497C77.0064 75.3087 76.9711 75.1218 76.9005 74.9472C76.8299 74.7726 76.7255 74.6137 76.5933 74.4796C76.461 74.3455 76.3036 74.2389 76.13 74.1659C75.9564 74.0929 75.7701 74.055 75.5817 74.0543H75.5808ZM51.2165 5.80105L52.1986 5.66844L63.2968 36.6383C65.3288 42.3207 65.9045 48.4217 64.9714 54.3839L63.0703 64.5729C62.5245 66.6856 62.8097 68.9272 63.867 70.8361L65.4082 73.9508L47.4375 73.7677V40.4297H47.4499L47.4648 37.5862C47.6281 34.4095 50.3552 31.6205 53.6933 31.0171L53.5024 53.6971C53.4977 54.0807 53.6453 54.4504 53.9127 54.7254C54.1801 55.0004 54.5456 55.1581 54.9292 55.1641H54.9416C55.3236 55.1577 55.6879 55.0021 55.9565 54.7304C56.2252 54.4588 56.3769 54.0928 56.3791 53.7108L56.5848 29.4632C56.5883 29.0819 56.4407 28.7147 56.1743 28.4417C55.908 28.1688 55.5444 28.0124 55.1631 28.0067C52.4869 28.0029 49.9031 28.9856 47.9059 30.767C47.7621 30.8941 47.6556 31.0229 47.5214 31.1553L47.6171 10.0214V9.99873C47.603 8.98076 47.9609 7.99262 48.6236 7.21976C49.2863 6.44689 50.2083 5.94244 51.2165 5.80105V5.80105ZM28.9311 64.5729L27.0323 54.3833C26.1006 48.4208 26.6776 42.3199 28.7106 36.6378L39.8165 5.66844L40.7834 5.80105C41.7917 5.94244 42.7136 6.44689 43.3763 7.21976C44.039 7.99262 44.3969 8.98076 44.3828 9.99873V10.0214L44.4787 31.1537C44.3445 31.0211 44.2218 30.8906 44.0789 30.7634C42.0846 28.9818 39.5035 27.9979 36.8292 27.9996C36.4491 28.004 36.0862 28.1591 35.8203 28.431C35.5545 28.7028 35.4074 29.069 35.4115 29.4492L35.6192 53.7108C35.6218 54.093 35.7738 54.459 36.0427 54.7306C36.3117 55.0022 36.6762 55.1578 37.0583 55.1641H37.0707C37.4552 55.1555 37.8207 54.9954 38.0876 54.7187C38.3546 54.4419 38.5014 54.0708 38.496 53.6863L38.3036 31.0098C41.6416 31.6132 44.3786 34.3726 44.5413 37.5366L44.5625 40.3436V73.7677L26.5917 73.9508L28.1396 70.8361C29.1952 68.9266 29.4785 66.685 28.9311 64.5729V64.5729ZM44.5625 86.1857L18.0046 86.4574L17.9053 76.9144L44.5625 76.6429V86.1857ZM73.9953 86.4574L47.4375 86.1857V76.6429L74.0943 76.9144L73.9953 86.4574Z" fill="white"/>
</svg>
