<svg width="59" height="59" viewBox="0 0 59 59" fill="none" xmlns="http://www.w3.org/2000/svg">
<circle cx="29.5" cy="29.5" r="29.5" fill="#2EC4C9"/>
<path d="M37.8432 15.451H22.1569C22.0271 15.451 21.9216 15.5564 21.9216 15.6863V42.353V44.0785C21.9216 44.2084 22.027 44.3138 22.1569 44.3138H37.8432C37.973 44.3138 38.0785 44.2084 38.0785 44.0785V42.353V15.6863C38.0785 15.5564 37.973 15.451 37.8432 15.451ZM37.6079 43.8432H22.3922V42.5883H37.6079V43.8432ZM37.6079 42.1177H22.3922V15.9216H37.6079V42.1177Z" fill="white"/>
<path d="M26.8188 14.7971C27.0211 14.7971 27.1852 14.6331 27.1852 14.4307C27.1852 14.2284 27.0211 14.0643 26.8188 14.0643C26.6164 14.0643 26.4524 14.2284 26.4524 14.4307C26.4524 14.6331 26.6164 14.7971 26.8188 14.7971Z" fill="white"/>
<path d="M25.6951 42.9353H26.1644C26.3062 42.9353 26.4223 43.0469 26.4223 43.1849C26.4223 43.323 26.3069 43.4347 26.1644 43.4347H25.7045C25.6662 43.4347 25.6367 43.4662 25.6367 43.5025C25.6367 43.5407 25.6668 43.5708 25.7045 43.5708H26.1644C26.3815 43.5708 26.5578 43.3971 26.5578 43.1843C26.5578 42.971 26.3809 42.7977 26.1644 42.7977H25.6951L25.7088 42.7645L25.4697 42.8662L25.7088 42.9665L25.6951 42.9353Z" fill="white"/>
<path d="M29.8374 43.2596V43.599C29.8374 43.6211 29.8563 43.6392 29.8789 43.6392H30.0935C30.1161 43.6392 30.1343 43.6211 30.1343 43.599V43.3223H30.2296V43.599C30.2296 43.6211 30.2485 43.6392 30.271 43.6392H30.4543C30.4769 43.6392 30.495 43.6211 30.495 43.599V43.2596H30.6846C30.7009 43.2596 30.7165 43.249 30.7228 43.2339C30.7284 43.2182 30.7247 43.2 30.7128 43.1887L30.1996 42.7087C30.1833 42.6942 30.1588 42.6942 30.1431 42.7093L29.6506 43.1899C29.6386 43.2012 29.6355 43.2188 29.6411 43.2339C29.6474 43.2495 29.6624 43.2596 29.6794 43.2596H29.8374ZM30.1719 42.7954L30.5804 43.1774H30.4536C30.4311 43.1774 30.4129 43.1955 30.4129 43.2182V43.557H30.3111V43.2803C30.3111 43.2577 30.2929 43.2395 30.2704 43.2395H30.0922C30.0695 43.2395 30.0508 43.2577 30.0508 43.2803V43.557H29.9184V43.2182C29.9184 43.1955 29.9002 43.1774 29.8776 43.1774H29.7791L30.1719 42.7954Z" fill="white"/>
<path d="M33.6548 43.5194H34.2723C34.3156 43.5194 34.3507 43.4837 34.3507 43.441V43.3331H34.5307V43.1078V42.8824H33.7854V43.0293H33.6548C33.6115 43.0293 33.5764 43.0651 33.5764 43.1077V43.4409C33.5764 43.4837 33.6115 43.5194 33.6548 43.5194ZM33.7333 43.1862H34.1939V43.3626H33.7333V43.1862Z" fill="white"/>
<path d="M38.2354 12H21.7648C21.1593 12 20.6667 12.4926 20.6667 13.098V46.902C20.6667 47.5076 21.1593 48 21.7648 48H38.2354C38.841 48 39.3334 47.5075 39.3334 46.902V13.098C39.3334 12.4926 38.841 12 38.2354 12ZM38.3923 46.902C38.3923 46.9886 38.3221 47.0589 38.2354 47.0589H21.7648C21.6782 47.0589 21.6079 46.9887 21.6079 46.902V13.098C21.6079 13.0115 21.6782 12.9411 21.7648 12.9411H38.2354C38.322 12.9411 38.3923 13.0114 38.3923 13.098V46.902Z" fill="white"/>
</svg>
